/* XPM */
static char * char2_xpm[] = {
"32 32 39 1",
" 	c None",
".	c #991111",
"+	c #C32808",
"@	c #EA711B",
"#	c #0C0A07",
"$	c #4C342F",
"%	c #634A45",
"&	c #553D39",
"*	c #3A2B28",
"=	c #6E7D61",
"-	c #FFBF47",
";	c #4C403D",
">	c #8F9D84",
",	c #5F7050",
"'	c #E4B5A5",
")	c #D2A394",
"!	c #0F0A07",
"~	c #425059",
"{	c #1D0B07",
"]	c #250C07",
"^	c #57636B",
"/	c #170A07",
"(	c #140C07",
"_	c #190A07",
":	c #362623",
"<	c #280A08",
"[	c #6E6554",
"}	c #370D07",
"|	c #554C3C",
"1	c #564C3C",
"2	c #231107",
"3	c #150A07",
"4	c #1A0B07",
"5	c #810F0E",
"6	c #A52108",
"7	c #8E1D07",
"8	c #8D1C07",
"9	c #C65F16",
"0	c #8B1C07",
".+@+..+...++...+....+@@++++++++.",
".@@..++...++...+...+@@+++++++...",
"+@+.++...++..#..##+@@++..++.....",
"@@..+..+.++.#$##$$###+..++...+..",
"@@..+..+...#$%$$%%$$$#.++...++..",
"@+.....+..#%%%%%%%%%#..+....+...",
"@......+.#$%%%%%%%$$%#....+....+",
".....+..#$$%%%%%%$%%%#...++...+@",
"....++...#%%%%%%%%%%%$#..+....@+",
"....+....#&%%$%$%%%%$#.+++...+@.",
"..+++.+.#&&%%%$%%%%%&#+++++.++..",
".++...+..#&&%%%%%%%%&&#.+++++...",
"....+++..#&&&%%%%%%&&#..@+.++...",
"+..++..++@#&&%%%%&&&#...@+.+....",
"..++++@@@@+#&&&&&&&#+++@@+.+...+",
"....+@++@+#*=*===*=*#++@@@....++",
"...+@++@@+#**=====**#.+@-@+.+++.",
"..+@-+@@+#***=====***#.@--+...+.",
"+@--@.@+.#;=*=>>>=*=;#.+@-@..+..",
"@@++..+.#;;#==,,,==#;;#+@-@..+.+",
"++....+.#')#*=>>>=*#)'#++--+...+",
"+........!##~~~~~~~#{]..+@-@...+",
"..........+#~^^^^^~#+...@@--+..+",
"..+++++..+.#~^^^^^~/...+@+--@..+",
"+@--@++++..#~^~#~^~/...+@+@-@+..",
"@--@+......#~~(@!~~_..+@@+--@+..",
"-@+...++++.#::(@<[[}.+@@++-@+..+",
"@+...+@+...#|12+.34+++..+@@+...@",
"+....@+.555678955006655.+@+...+@",
"+..+@+...6666655666555.+@+....@@",
"+..@+..+++++++.++.+..+@@@+...+++",
"..@@..++++.++..++....@@@++.+++++"};
