/* XPM */
static char * char3_xpm[] = {
"32 32 30 1",
" 	c None",
".	c #991111",
"+	c #C32808",
"@	c #EA711B",
"#	c #0C0A07",
"$	c #4C342F",
"%	c #553D39",
"&	c #634A45",
"*	c #000000",
"=	c #D2A394",
"-	c #E4B5A5",
";	c #B56A68",
">	c #291A18",
",	c #3A2B28",
"'	c #6E7D61",
")	c #C0AC98",
"!	c #FFBF47",
"~	c #4C403D",
"{	c #DBCBBC",
"]	c #87947C",
"^	c #657358",
"/	c #425059",
"(	c #57636B",
"_	c #362623",
":	c #554C3C",
"<	c #810F0E",
"[	c #A52108",
"}	c #8B1C07",
"|	c #C65F16",
"1	c #6D0E0C",
".+@+..+...++...+....+@@++++++++.",
".@@..++...++...+...+@@+++++++...",
"+@+.++...++.......+@@++..++.....",
"@@..+..+.++...###+#@++..++...+..",
"@@..+..+..####$$$#$#+..++...++..",
"@+.....+.#$$$%&&&$&#...+....+...",
"@......+..#%&&&&&&&&#+....+....+",
".....+...#%&&&&&&&&&#....++...+@",
"....++...#%&&&&$$&&&*....+....@+",
"....+...#$$%&&&=$&$&%*.+++...+@.",
"..+++.+..#$&&&===&=&*++++++.++..",
".++...+..#%&&==#-=#=%*..+++++...",
"....+++.#$%&;==>-->=*...@+.++...",
"+..++..++#%%%==----=*...@+.+....",
"..++++@@@@#%%%=---=*+++@@+.+...+",
"....+@++@+.#%%#===#++++@@@....++",
"...+@++@@+.#,',))),#..+@!@+.+++.",
"..+@!+@@+..#,'~{{),#...@!!+...+.",
"+@!!@.@+..#,,]~{{{,~#..+@!@..+..",
"@@++..+...#~'~~){{,~#+.+@!@..+.+",
"++....+..#~~^,~{){,,~#.++!!+...+",
"+........#=-^,,///,,-#..+@!@...+",
"..........###//(((###...@@!!+..+",
"..+++++..+..#/((#(#....+@+!!@..+",
"+@!!@++++..#_#/((##....+@+@!@+..",
"@!!@+......#:##/((#...+@@+!!@+..",
"!@+...++++.##+#/__#+.+@@++!@+..+",
"@+...+@+...+.+@#_::#++..+@@+...@",
"+....@+..<<[}[|<1}}[[<<.+@+...+@",
"+..+@+...+[[[[<<[[[<<<.+@+....@@",
"+..@+..+++++++.++.+..+@@@+...+++",
"..@@..++++.++..++....@@@++.+++++"};
