/* XPM */
static char * char1_xpm[] = {
"32 32 32 1",
" 	c None",
".	c #991111",
"+	c #C32808",
"@	c #EA711B",
"#	c #0C0A07",
"$	c #4C342F",
"%	c #634A45",
"&	c #D2A394",
"*	c #E4B5A5",
"=	c #553D39",
"-	c #B56A68",
";	c #291A18",
">	c #3A2B28",
",	c #6E7D61",
"'	c #C0AC98",
")	c #4C403D",
"!	c #DBCBBC",
"~	c #FFBF47",
"{	c #87947C",
"]	c #425059",
"^	c #57636B",
"/	c #2C0C07",
"(	c #140C07",
"_	c #362623",
":	c #1A0E07",
"<	c #554C3C",
"[	c #160A07",
"}	c #830F0E",
"|	c #810F0E",
"1	c #A52108",
"2	c #8B1C07",
"3	c #C65F16",
".+@+..+...++...+....+@@++++++++.",
".@@..++...++...+...+@@+++++++...",
"+@+.++...++..##..#+@@++..++.....",
"@@..+..+.+###$$##$#@++..++...+..",
"@@..+..+.#$$$%%$$%$#+..++...++..",
"@+.....+..#%%%%%%%%%#..+....+...",
"@......+.#%%%%%%%%%%$#....+....+",
".....+...#%%%$$%$%%%$$#..++...+@",
"....++..#$$%%&$%&%%%%#...+....@+",
"....+....#$%&&&%&&%%%#.+++...+@.",
"..+++.+..#%%&#*&*#&$%%#++++.++..",
".++...+.#=%-&;***;&-=#..+++++...",
"....+++..#==&*****&==#..@+.++...",
"+..++..++@#==&***&==#...@+.+....",
"..++++@@@@+#=#&&&#=#+++@@+.+...+",
"....+@++@+#>,>'''>,>#++@@@....++",
"...+@++@@+#>,)!!'),>#.+@~@+.+++.",
"..+@~+@@+#>>{)!!!){>>#.@~~+...+.",
"+@~~@.@+.#)>,)'!!),>)#.+@~@..+..",
"@@++..+.#))#>)!'!)>#))#+@~@..+.+",
"++....+.#*&#>>]]]>>#&*#++~~+...+",
"+........###]]]]]]]###..+@~@...+",
"..........+#]^^^^^]#+...@@~~+..+",
"..+++++..+.#]^^]^^]#...+@+~~@..+",
"+@~~@++++..#]^]/]^]#...+@+@~@+..",
"@~~@+......#]](@#]]#..+@@+~~@+..",
"~@+...++++.#__:@#<<[.+@@++~@+..+",
"@+...+@+...#<<:+.##+++..+@@+...@",
"+....@+..}|1223||2211||.+@+...+@",
"+..+@+...11111||111|||.+@+....@@",
"+..@+..+++++++.++.+..+@@@+...+++",
"..@@..++++.++..++....@@@++.+++++"};
