/* XPM */
static char * collectible_xpm[] = {
"32 32 11 1",
" 	c None",
".	c #991111",
"+	c #C32808",
"@	c #EA711B",
"#	c #000000",
"$	c #7AC5FF",
"%	c #FFBF47",
"&	c #066FA3",
"*	c #0995EC",
"=	c #75BEF6",
"-	c #C1E5FF",
".+@+..+...++...+....+@@++++++++.",
".@@..++...++...+...+@@+++++++...",
"+@+.++...++....#..+@@++..++.....",
"@@..+..+.++...#$#+@@++..++...+..",
"@@..+..+.....+#$#@@++..++...++..",
"@+.....+...++@#$$#@+...+....+...",
"@......+..++@%%#$#.+++....+....+",
".....+....++%%@#$##++....++...+@",
"....++....+@%@#$$#$#+....+....@+",
"....+.....+%%##$&#$#...+++...+@.",
"..+++.+..++%#$#$&#$#.++++++.++..",
".++...+..++%#$#$&#$#@+..+++++...",
"....+++...+@#$$&&$$#+...@+.++...",
"+..++..++@@@#$*&&$*#....@+.+....",
"..++++@@@@+#$&*&=*&$#++@@+.+...+",
"....+@++@+.#$&*==&&$#++@@@....++",
"...+@++@@+.#$&&==&&$#.+@%@+.+++.",
"..+@%+@@+.#$*&====&*$#.@%%+...+.",
"+@%%@.@+..#$*=====&*$#.+@%@..+..",
"@@++..+..#**&======&**#+@%@..+.+",
"++....+..#**&------&**#++%%+...+",
"+........#**&------&**#.+@%@...+",
".........#**&=----=&**#.@@%%+..+",
"..+++++..+#&*&&==&&*&#.+@+%%@..+",
"+@%%@++++.#&***&&***&#.+@+@%@+..",
"@%%@+......#&&****&&#.+@@+%%@+..",
"%@+...++++..##&&&&##.+@@++%@+..+",
"@+...+@+...+.+####++++..+@@+...@",
"+....@+....+++@..++++...+@+...+@",
"+..+@+...+++++..+++....+@+....@@",
"+..@+..+++++++.++.+..+@@@+...+++",
"..@@..++++.++..++....@@@++.+++++"};
