/* XPM */
static char * floor_xpm[] = {
"32 32 5 1",
" 	c None",
".	c #991111",
"+	c #C32808",
"@	c #EA711B",
"#	c #FFBF47",
".+@+..+...++...+....+@@++++++++.",
".@@..++...++...+...+@@+++++++...",
"+@+.++...++.......+@@++..++.....",
"@@..+..+.++......+@@++..++...+..",
"@@..+..+.....+@@+@@++..++...++..",
"@+.....+...++@##@@@+...+....+...",
"@......+..++@##@@+.+++....+....+",
".....+....++##@++..++....++...+@",
"....++....+@#@+++++++....+....@+",
"....+.....+##@..++++...+++...+@.",
"..+++.+..++##+.++....++++++.++..",
".++...+..++#@+.....+@+..+++++...",
"....+++...+@@+...++@+...@+.++...",
"+..++..++@@@+....+@@....@+.+....",
"..++++@@@@+++...++@++++@@+.+...+",
"....+@++@+..+...+.@++++@@@....++",
"...+@++@@+..@+.+++@+..+@#@+.+++.",
"..+@#+@@+...@+.+..+@...@##+...+.",
"+@##@.@+....#+.+...++..+@#@..+..",
"@@++..+.....#.......++.+@#@..+.+",
"++....+.....#........+.++##+...+",
"+..........+@+......++..+@#@...+",
"..........+++++....++...@@##+..+",
"..+++++..+..+@@+..+....+@+##@..+",
"+@##@++++...++@+..+....+@+@#@+..",
"@##@+........+@@..+...+@@+##@+..",
"#@+...++++...+@@..++.+@@++#@+..+",
"@+...+@+...+.+@+..++++..+@@+...@",
"+....@+....+++@..++++...+@+...+@",
"+..+@+...+++++..+++....+@+....@@",
"+..@+..+++++++.++.+..+@@@+...+++",
"..@@..++++.++..++....@@@++.+++++"};
